<svg xmlns="http://www.w3.org/2000/svg" xmlns:xlink="http://www.w3.org/1999/xlink" viewBox="0 0 1920 1947.18"><defs><style>.cls-1{fill:none;}.cls-2{fill:#82577f;}.cls-3{clip-path:url(#clip-path);}.cls-4{fill:#ad6d9e;}.cls-5{opacity:0.25;}</style><clipPath id="clip-path"><path class="cls-1" d="M1920,426.75s-40.36,86.48-319.34,93.58-309.72,139.58-423.21,212.83-113.66,15.53-106.39,5.83c0,0-182.41,198.12-422.32,237.76s-287.9,0-287.9,0S666.1,963.39,851.89,799.69s393.7-342.82,613.24-337.06c66.92,1.76,108.74,5.64,138.43,9.52,37.13,4.85,47.14,8.86,76.55,10.29,10.26.51,58.51,2.48,120.24-11.42A483.33,483.33,0,0,0,1920,426.75Z"/></clipPath></defs><g id="Layer_38" data-name="Layer 38"><path class="cls-2" d="M1920,426.75s-131.45,89-334.38,46.28-394.72,48-546,172.94S638.92,1067.44,0,994.14v884.5H1920Z"/><g class="cls-3"><path class="cls-4" d="M1920,426.75s-131.45,89-334.38,46.28-394.72,48-546,172.94S638.92,1067.44,0,994.14v884.5H1920Z"/></g></g></svg>