<svg xmlns="http://www.w3.org/2000/svg" viewBox="0 0 1920 5716.46"><defs><style>.cls-1{fill:#d4af29;}.cls-2{fill:#f7cc43;}.cls-3{fill:#b8a52b;}.cls-4{fill:#789946;}.cls-5{fill:#efaf43;}.cls-6{fill:#e47138;}</style></defs><g id="Layer_41" data-name="Layer 41"><path class="cls-1" d="M2707.44,2592.47s-363.9-310.77-691,147.21c0,0-320.3-679.2-916.64,40.69,0,0-621.15-468.55-767.3,266.91,0,0-678.89-193.3-678.89,584.59,0,0-311.15-80.15-495,339.44s179.15,720.78,212.16,770.55H2707.44Z"/><path class="cls-2" d="M600.8,3023.91s16.26-32.52,42.28-21.14-19.2,125.16-42.28,130S585,3045.56,600.8,3023.91Z"/><path class="cls-2" d="M707.37,3072.26s13.77-51.89,42.36-48.72,19.07,56.13,3.18,81.55-37.07,59.31-55.07,50.84S698.9,3101.92,707.37,3072.26Z"/><path class="cls-2" d="M837.64,3090.33s44.48-27.6,50.83,6.29-63.54,86.84-72,71S813.28,3112.63,837.64,3090.33Z"/><path class="cls-2" d="M1043.86,3555.4s8.84-12.63,29.06-7,11.36,32.85,2.52,48.64-58.11,84.64-67.58,91.58-24,.64-18.32-22.74S1028.7,3571.82,1043.86,3555.4Z"/><path class="cls-2" d="M1138.84,3643.24s15.68-11.76,28.1-3.26-1.31,42.48-14,59.47-34.31,43.79-42.16,43.14-3.26-39.87,6.54-66S1138.84,3643.24,1138.84,3643.24Z"/><path class="cls-2" d="M1547.13,3248.45s19-15,36.65,0-9.16,53.66-18.32,68.05-41.23,58.24-52.35,58.24-3.28-54.31,4.58-74.6S1531.43,3266.77,1547.13,3248.45Z"/><path class="cls-2" d="M1633.72,3298.78s31.11-32,55.31-11.24-67.51,120.55-67.51,120.55-19.78,22.69-26.77,2.91S1608.1,3319.78,1633.72,3298.78Z"/><path class="cls-2" d="M1570.73,2690s28-26.51,44.74-8.19-8,49.4-19.12,62.94-42.22,61.35-52.58,61.35-18.32-3.19-13.54-26.29S1549.89,2716.47,1570.73,2690Z"/><path class="cls-2" d="M1653.71,2744.71s27.09-24.78,44.62-4-23.11,110.78-62.15,117.95c0,0-23.9,8.76-11.15-27.89S1639.37,2767,1653.71,2744.71Z"/><path class="cls-3" d="M-2038.84,3866.32c-3.59-59.91,20.75-110.75,60.88-128.52,29.31-13,58.9-6,79.73,1.79,140.22,52.58,113.93,157.75,113.93,157.75s330.1,230.78,479.09,455.72c0,0,563.81-1498.63,1221.11-1343.8,0,0,30.37-134.55,95.89-131.43s67.09,74.89,68.65,143.53c0,0,54.61-62.4,112.33-45.24s39,67.08,39,67.08,101.41-35.88,120.13,23.41-60.85,117-101.41,123.25c0,0,297.71,295.11,263.29,818.3,0,0,87.12-82.65,194.08-107,0,0-42.36-119.67,4.24-164.15s117.55,66.72,117.55,66.72,27.6-86.56,98.78-96.18,67.32,100,67.32,100,105.8-111.57,184.67-77,17.31,150,17.31,150,259.44,131.77,296.38,384.81c0,0,18.47-114.51,88.65-110.82s49.87,138.52,49.87,138.52,166.22-177.31,243.8-145.91,12.93,140.37,12.93,140.37,455.59-2.58,530.78,510.52c0,0,66.35-261,150.39-380.4,0,0-144.23-20-124.85-106.16s129.23-56,129.23-56-47.38-40.93-28-112,112-15.08,116.31,6.46c0,0-2.92-110.65,51.69-135.61s88.93,6.24,95.17,110.78c0,0,332.88-225.19,653.5,39.78,0,0,14.7-101.57,69.63-103.06s65.33,43.06,59.39,108.38c0,0,147-1.48,148.47,44.54s-47.51,86.12-118.78,126.2c0,0,134.46,144.88,188.1,431.83s-37.55,414.4-37.55,414.4H-1978.68c10.33-200.57,12.81-420.92,2.15-658C-1987.33,4289.15-2010,4067.29-2038.84,3866.32Z"/><path class="cls-4" d="M103.63,3586.26s30.13-87.06,64.73-64.73,10,79.24,2.24,96S136,3687.83,111.44,3680,89.37,3618.16,103.63,3586.26Z"/><path class="cls-4" d="M886.89,4170.23s68.6,8.85,73,92.94,0,108.43-26.56,126.14-68.6-42.05-79.66-101.8S860.34,4185.72,886.89,4170.23Z"/><path class="cls-4" d="M1531.54,4592.54s57.93,34.76,0,123.59-113.93,56-113.93,56-40.55-32.83,13.52-113.93S1531.54,4592.54,1531.54,4592.54Z"/><path class="cls-4" d="M1014,4999.42s60.1-4,68.11,54.09,2,74.13-14,82.15-44.08,0-62.11-52.09S994,5015.45,1014,4999.42Z"/><path class="cls-5" d="M1936.24,5745.1s198.13-186.41,162.21-406.15-210.9-264.51-349.26-215.67c0,0,57.88-472-428.85-341.82,0,0,78.38-375.37-175-412.8s-282.14,115.16-282.14,115.16-27.61-246.51-230.52-261.27-489.81,172.63-522,467.28c0,0-119.7-92.08-207.17-23s-50.64,202.57-50.64,202.57-177.07-36.71-212.28,114,93.89,342.43,93.89,342.43S-624.85,5381-408,5738.73Z"/><path class="cls-6" d="M166.7,4944s-22,20.71-5,54.89,43.94,76.64,62.92,83.89,46.95,5.18,46.95-33.14S214.64,4917,166.7,4944Z"/><path class="cls-6" d="M404.9,4791s-30.23-2-30.23,53.87,4.28,85.05,8.5,156.66,22.76,77.64,41.56,78.54S461,5067,460.55,5012.86s-2.24-171.38-14.78-192.43S430.28,4792.51,404.9,4791Z"/><path class="cls-6" d="M636.31,4907.69s12.61-33.59,39.64-23.32,12.61,61,0,94.42-24.33,65.12-52.26,69.79-29.73-38.26-23.42-56S629.1,4931,636.31,4907.69Z"/><path class="cls-6" d="M970.48,5495s-18.65-29.63,0-56,62.55,14.26,75.72,40.6,25.24,63.64-3.29,75.72S970.48,5495,970.48,5495Z"/><path class="cls-6" d="M1181.35,5288.1s36-9,44.34,88.86,9.7,182.23-12.47,186.74S1173,5568.22,1162,5514s0-81.33-11.09-162.65C1150.87,5351.36,1141.17,5289.61,1181.35,5288.1Z"/><path class="cls-6" d="M1427.8,5484.32c11-23.54,30.77-116.17-3.41-111.72s-44.88,49-65.18,93.52-3.2,71.25-3.2,71.25,6,11.32,24.28,6.84S1427.8,5484.32,1427.8,5484.32Z"/></g></svg>