<svg xmlns="http://www.w3.org/2000/svg" viewBox="0 0 1920 1080"><defs><style>.cls-1{fill:#f1c3b2;}.cls-2{fill:#f0b5a6;}.cls-3{fill:#f5d3c0;}.cls-4{fill:#fafaef;}.cls-5{opacity:0.25;}</style></defs><g id="Layer_29" data-name="Layer 29"><rect class="cls-1" x="4.04" width="1920" height="1080"/></g><g id="Layer_39" data-name="Layer 39"><path class="cls-2" d="M1915.47,261.39c-166.09,13.27-368.06,47.76-507.11,84.91s-539.68,133.23-993.28,6.91-419-83.86-419-83.86V.61h1919.4Z"/></g><g id="Layer_45" data-name="Layer 45"><path class="cls-3" d="M2091.13,869.9c-271.89,15.84-335.23-19.32-636.09-139S281.2,512.07-291.77,820.3v630.21s577.68,258.63,1237.46,37,1145.44-79.69,1145.44-79.69Z"/></g><g id="Layer_37" data-name="Layer 37"><path class="cls-4" d="M2220.46,97.85s-743.5-12-823.83,9.35-67.78,65.27-36.4,79.08,172.85,12.66,172.85,12.66,62.88.41,61.6,19.57-167.26,17.87-167.26,17.87-336,4.29-370.36,37.18-11.44,58.63,10,62.92,57.2,15.73,204.49,15.73,491.91,10,533.38-14.3,41.46-54.34,22.87-71.5-132.06-13.58-128.43-42,524.35-26.55,524.35-26.55,64-.63,78.92-32S2308.64,99.05,2220.46,97.85Z"/><path class="cls-4" d="M2121.88,702.09s-635.95-2.9-746.86,19.28c0,0-100,5.2-92.21,53.35s184.67,37,201.29,41.19,14.48,18.83.84,19.16-109.82,6.45-130.81,21.54-18,41.65-4.59,48.54,39.15,15.76,174.8,15.08,157.58-13.7,179.5-4.8,8.91,28.78-10.28,32.2-113.72,6.85-124,32.2-3.43,47.27,24.66,52.76,376.07,7.43,429.64,0S2121.88,702.09,2121.88,702.09Z"/><path class="cls-4" d="M-264.36,216.84S448,176.28,486.93,280.65s-149.14,84.29-149.14,84.29-136.17-3.89-134.87,32.42,134.87,34.29,134.87,34.29S889.32,453.31,938,479.1s34.4,87.42-4.3,93.15S465.59,605,360,598.82s-254.68-20.7-277.46,8.29-4.14,51.1,105.6,51.76,467.58-14.64,481,70.09-391,89.19-391,89.19-305.55,27.43-365.28,0c0,0-36.16-15-49.37-35.4s-15.6-50.41-79.22-51c0,0-35.22-1.2-47.92,0"/></g></svg>